<svg xmlns="http://www.w3.org/2000/svg" viewBox="0 0 800 600">
  <!-- Background -->
  <rect width="800" height="600" fill="#f8fafc" />
  
  <!-- Dashboard Header -->
  <rect x="20" y="20" width="760" height="60" rx="8" fill="#f1f5f9" />
  <circle cx="50" cy="50" r="15" fill="#3b82f6" />
  <rect x="80" y="40" width="150" height="20" rx="4" fill="#64748b" />
  <rect x="600" y="40" width="80" height="20" rx="4" fill="#3b82f6" />
  <rect x="700" y="40" width="40" height="20" rx="4" fill="#64748b" />
  
  <!-- Left Sidebar -->
  <rect x="20" y="100" width="200" height="480" rx="8" fill="#f1f5f9" />
  <rect x="40" y="120" width="160" height="40" rx="4" fill="#3b82f6" opacity="0.9" />
  <rect x="40" y="180" width="160" height="40" rx="4" fill="#f1f5f9" stroke="#cbd5e1" />
  <rect x="40" y="240" width="160" height="40" rx="4" fill="#f1f5f9" stroke="#cbd5e1" />
  <rect x="40" y="300" width="160" height="40" rx="4" fill="#f1f5f9" stroke="#cbd5e1" />
  <rect x="40" y="360" width="160" height="40" rx="4" fill="#f1f5f9" stroke="#cbd5e1" />
  <rect x="40" y="420" width="160" height="40" rx="4" fill="#f1f5f9" stroke="#cbd5e1" />
  
  <!-- Input Form -->
  <rect x="240" y="100" width="540" height="180" rx="8" fill="#ffffff" stroke="#e2e8f0" />
  <rect x="260" y="120" width="200" height="20" rx="4" fill="#0f172a" opacity="0.8" />
  
  <rect x="260" y="155" width="120" height="15" rx="2" fill="#64748b" opacity="0.7" />
  <rect x="260" y="175" width="140" height="30" rx="4" fill="#f1f5f9" stroke="#cbd5e1" />
  
  <rect x="420" y="155" width="120" height="15" rx="2" fill="#64748b" opacity="0.7" />
  <rect x="420" y="175" width="140" height="30" rx="4" fill="#f1f5f9" stroke="#cbd5e1" />
  
  <rect x="580" y="155" width="120" height="15" rx="2" fill="#64748b" opacity="0.7" />
  <rect x="580" y="175" width="140" height="30" rx="4" fill="#f1f5f9" stroke="#cbd5e1" />
  
  <rect x="260" y="220" width="120" height="15" rx="2" fill="#64748b" opacity="0.7" />
  <rect x="260" y="240" width="140" height="30" rx="4" fill="#f1f5f9" stroke="#cbd5e1" />
  
  <rect x="420" y="220" width="120" height="15" rx="2" fill="#64748b" opacity="0.7" />
  <rect x="420" y="240" width="140" height="30" rx="4" fill="#f1f5f9" stroke="#cbd5e1" />
  
  <rect x="640" y="240" width="100" height="30" rx="4" fill="#3b82f6" />
  
  <!-- Chart 1: Loan Balance -->
  <rect x="240" y="300" width="260" height="280" rx="8" fill="#ffffff" stroke="#e2e8f0" />
  <rect x="260" y="320" width="150" height="20" rx="4" fill="#0f172a" opacity="0.8" />
  
  <!-- Chart content: Loan Balance -->
  <polyline points="260,550 260,380 520,380" stroke="#cbd5e1" stroke-width="1" fill="none" />
  <polyline points="260,380 280,420 300,430 320,440 340,450 360,460 380,470 400,475 420,480 440,485 460,490 480,495 500,498" stroke="#3b82f6" stroke-width="3" fill="none" />
  <polyline points="260,380 280,385 300,390 320,395 340,400 360,405 380,410 400,415 420,420 440,430 460,440 480,460 500,480" stroke="#ef4444" stroke-width="2" fill="none" opacity="0.6" />
  
  <!-- Chart 2: Payment Breakdown -->
  <rect x="520" y="300" width="260" height="280" rx="8" fill="#ffffff" stroke="#e2e8f0" />
  <rect x="540" y="320" width="180" height="20" rx="4" fill="#0f172a" opacity="0.8" />
  
  <!-- Chart content: Payment Breakdown -->
  <rect x="550" y="380" width="30" height="140" rx="2" fill="#3b82f6" opacity="0.8" />
  <rect x="590" y="420" width="30" height="100" rx="2" fill="#ef4444" opacity="0.6" />
  <rect x="630" y="460" width="30" height="60" rx="2" fill="#22c55e" opacity="0.6" />
  <rect x="670" y="410" width="30" height="110" rx="2" fill="#eab308" opacity="0.6" />
  <rect x="710" y="370" width="30" height="150" rx="2" fill="#8b5cf6" opacity="0.7" />
  
  <!-- Stats Cards -->
  <rect x="540" y="530" width="100" height="40" rx="4" fill="#f1f5f9" stroke="#cbd5e1" />
  <rect x="650" y="530" width="100" height="40" rx="4" fill="#f1f5f9" stroke="#cbd5e1" />
</svg>